<svg id="Download_on_the_App_Store_Badge_US-UK_RGB_blk_092917" xmlns="http://www.w3.org/2000/svg" width="192" height="57" viewBox="0 0 192 57">
  <path id="background" d="M13.2,57.872c-.5,0-.98-.006-1.472-.016a22.526,22.526,0,0,1-3.043-.243,10.21,10.21,0,0,1-2.7-.816,8.814,8.814,0,0,1-2.275-1.515,8.045,8.045,0,0,1-2.546-4.55A16.971,16.971,0,0,1,.9,47.937c-.01-.314-.024-1.361-.024-1.361V12.154s.014-1.03.024-1.333a16.912,16.912,0,0,1,.27-2.79A8.109,8.109,0,0,1,3.7,3.472,9.073,9.073,0,0,1,5.988,1.948,10.107,10.107,0,0,1,8.68,1.138,22.346,22.346,0,0,1,11.733.893L13.2.875H180.535l1.487.019a21.99,21.99,0,0,1,3.026.242,10.308,10.308,0,0,1,2.721.816A8.759,8.759,0,0,1,191.7,5.559a8.086,8.086,0,0,1,.871,2.457,17.778,17.778,0,0,1,.283,2.812c0,.422,0,.875,0,1.326.013.559.013,1.091.013,1.627V44.967c0,.541,0,1.07-.013,1.6,0,.485,0,.928-.006,1.385a17.409,17.409,0,0,1-.278,2.762,8.051,8.051,0,0,1-.879,2.488,8.248,8.248,0,0,1-1.654,2.065,8.821,8.821,0,0,1-2.279,1.524,10.173,10.173,0,0,1-2.716.819,22.27,22.27,0,0,1-3.044.243c-.477.01-.976.016-1.461.016l-1.765,0Z" transform="translate(-0.873 -0.875)"/>
  <g id="App_Store" data-name="App Store" transform="translate(58.288 25.326)">
    <path id="Path_3485" data-name="Path 3485" d="M46.162,31.581H39.109l-1.694,5H34.427l6.681-18.5h3.1l6.681,18.5H47.854Zm-6.323-2.308H45.43l-2.756-8.117H42.6Z" transform="translate(-34.427 -17.77)" fill="#fff"/>
    <path id="Path_3486" data-name="Path 3486" d="M59.34,28.236c0,4.192-2.244,6.886-5.63,6.886a4.574,4.574,0,0,1-4.245-2.36H49.4v6.682H46.631V21.49h2.681v2.244h.051a4.786,4.786,0,0,1,4.3-2.385C57.083,21.348,59.34,24.055,59.34,28.236Zm-2.846,0c0-2.731-1.412-4.527-3.565-4.527-2.116,0-3.539,1.834-3.539,4.527,0,2.718,1.423,4.539,3.539,4.539C55.082,32.775,56.493,30.992,56.493,28.236Z" transform="translate(-28.446 -16.168)" fill="#fff"/>
    <path id="Path_3487" data-name="Path 3487" d="M69.3,28.236c0,4.192-2.244,6.886-5.63,6.886a4.574,4.574,0,0,1-4.245-2.36h-.064v6.682H56.6V21.49h2.68v2.244h.051a4.786,4.786,0,0,1,4.3-2.385C67.047,21.348,69.3,24.055,69.3,28.236Zm-2.846,0c0-2.731-1.412-4.527-3.565-4.527-2.116,0-3.539,1.834-3.539,4.527,0,2.718,1.423,4.539,3.539,4.539,2.154,0,3.565-1.783,3.565-4.539Z" transform="translate(-23.562 -16.168)" fill="#fff"/>
    <path id="Path_3488" data-name="Path 3488" d="M72.643,31.528c.205,1.835,1.988,3.04,4.424,3.04,2.334,0,4.013-1.2,4.013-2.859,0-1.436-1.013-2.3-3.411-2.886l-2.4-.578c-3.4-.821-4.975-2.41-4.975-4.988,0-3.193,2.782-5.386,6.733-5.386,3.91,0,6.591,2.193,6.681,5.386h-2.8C80.747,21.41,79.22,20.3,76.989,20.3s-3.757,1.128-3.757,2.769c0,1.308.975,2.078,3.36,2.667l2.039.5c3.8.9,5.374,2.423,5.374,5.13,0,3.462-2.758,5.63-7.144,5.63-4.1,0-6.874-2.117-7.053-5.464Z" transform="translate(-17.086 -17.871)" fill="#fff"/>
    <path id="Path_3489" data-name="Path 3489" d="M84.907,19.3v3.193h2.566v2.193H84.907v7.437c0,1.155.514,1.694,1.641,1.694a8.655,8.655,0,0,0,.911-.064v2.18a7.605,7.605,0,0,1-1.538.128c-2.731,0-3.8-1.026-3.8-3.642V24.685H80.163V22.493h1.962V19.3Z" transform="translate(-12.012 -17.171)" fill="#fff"/>
    <path id="Path_3490" data-name="Path 3490" d="M86.065,28.243c0-4.245,2.5-6.912,6.4-6.912s6.4,2.667,6.4,6.912-2.475,6.912-6.4,6.912S86.065,32.5,86.065,28.243Zm9.977,0c0-2.912-1.334-4.63-3.578-4.63s-3.577,1.732-3.577,4.63c0,2.923,1.333,4.629,3.577,4.629s3.578-1.705,3.578-4.629Z" transform="translate(-9.119 -16.175)" fill="#fff"/>
    <path id="Path_3491" data-name="Path 3491" d="M96.186,21.49h2.641v2.3h.064a3.218,3.218,0,0,1,3.245-2.437,4.271,4.271,0,0,1,.949.1v2.59a3.871,3.871,0,0,0-1.244-.167,2.79,2.79,0,0,0-2.886,3.1v8H96.186Z" transform="translate(-4.158 -16.168)" fill="#fff"/>
    <path id="Path_3492" data-name="Path 3492" d="M113.387,31.026c-.373,2.449-2.758,4.13-5.809,4.13-3.925,0-6.361-2.63-6.361-6.848s2.449-6.976,6.244-6.976c3.733,0,6.08,2.564,6.08,6.655v.949h-9.529V29.1a3.514,3.514,0,0,0,3.629,3.821,3.052,3.052,0,0,0,3.116-1.9ZM104.026,27h6.745a3.244,3.244,0,0,0-3.309-3.424A3.415,3.415,0,0,0,104.026,27Z" transform="translate(-1.692 -16.175)" fill="#fff"/>
  </g>
  <g id="download_on_the" data-name="download on the" transform="translate(59.171 11.268)">
    <path id="Path_3493" data-name="Path 3493" d="M38.883,8.734a3.933,3.933,0,0,1,4.184,4.418c0,2.841-1.535,4.473-4.184,4.473H35.671V8.734Zm-1.831,7.634h1.676a2.8,2.8,0,0,0,2.932-3.2,2.8,2.8,0,0,0-2.932-3.18H37.052Z" transform="translate(-35.671 -8.296)" fill="#fff"/>
    <path id="Path_3494" data-name="Path 3494" d="M41.686,13.589a3.179,3.179,0,1,1,6.329,0,3.179,3.179,0,1,1-6.329,0Zm4.967,0c0-1.454-.653-2.305-1.8-2.305s-1.8.851-1.8,2.305.648,2.31,1.8,2.31,1.8-.85,1.8-2.31Z" transform="translate(-32.73 -7.618)" fill="#fff"/>
    <path id="Path_3495" data-name="Path 3495" d="M54.026,16.9H52.652l-1.387-4.942h-.1L49.78,16.9H48.419l-1.85-6.71h1.343l1.2,5.12h.1l1.38-5.12h1.27l1.38,5.12h.1l1.2-5.12h1.324Z" transform="translate(-30.329 -7.575)" fill="#fff"/>
    <path id="Path_3496" data-name="Path 3496" d="M53.854,10.24h1.275v1.066h.1a2.009,2.009,0,0,1,2-1.2,2.182,2.182,0,0,1,2.323,2.5v4.344H58.228V12.938c0-1.078-.469-1.615-1.448-1.615a1.539,1.539,0,0,0-1.6,1.7V16.95H53.854Z" transform="translate(-26.759 -7.62)" fill="#fff"/>
    <path id="Path_3497" data-name="Path 3497" d="M59.094,8.437h1.324v9.329H59.094Z" transform="translate(-24.191 -8.437)" fill="#fff"/>
    <path id="Path_3498" data-name="Path 3498" d="M61.223,13.589a3.179,3.179,0,1,1,6.329,0,3.18,3.18,0,1,1-6.329,0Zm4.967,0c0-1.454-.653-2.305-1.8-2.305s-1.8.851-1.8,2.305.648,2.31,1.8,2.31,1.8-.85,1.8-2.31Z" transform="translate(-23.155 -7.618)" fill="#fff"/>
    <path id="Path_3499" data-name="Path 3499" d="M66.4,15.05c0-1.208.9-1.9,2.5-2l1.818-.1v-.579c0-.709-.469-1.109-1.374-1.109-.739,0-1.251.271-1.4.746H66.66c.135-1.153,1.219-1.892,2.742-1.892,1.682,0,2.631.837,2.631,2.255v4.585H70.758V16h-.1a2.258,2.258,0,0,1-2.015,1.054A2.027,2.027,0,0,1,66.4,15.05Zm4.313-.573v-.561l-1.639.1c-.924.062-1.343.376-1.343.968s.524.955,1.244.955a1.582,1.582,0,0,0,1.737-1.467Z" transform="translate(-20.61 -7.618)" fill="#fff"/>
    <path id="Path_3500" data-name="Path 3500" d="M71.348,14.408c0-2.12,1.09-3.463,2.785-3.463a2.211,2.211,0,0,1,2.058,1.177h.1V8.437h1.324v9.329H76.345v-1.06h-.1a2.329,2.329,0,0,1-2.107,1.171C72.426,17.877,71.348,16.534,71.348,14.408Zm1.368,0c0,1.423.671,2.28,1.793,2.28s1.806-.869,1.806-2.274-.7-2.28-1.806-2.28-1.793.862-1.793,2.274Z" transform="translate(-18.185 -8.437)" fill="#fff"/>
    <path id="Path_3501" data-name="Path 3501" d="M79.235,13.589a3.179,3.179,0,1,1,6.329,0,3.179,3.179,0,1,1-6.329,0Zm4.967,0c0-1.454-.653-2.305-1.8-2.305s-1.8.851-1.8,2.305.648,2.31,1.8,2.31S84.2,15.05,84.2,13.589Z" transform="translate(-14.327 -7.618)" fill="#fff"/>
    <path id="Path_3502" data-name="Path 3502" d="M84.669,10.24h1.275v1.066h.1a2.009,2.009,0,0,1,2-1.2,2.182,2.182,0,0,1,2.322,2.5v4.344H89.044V12.938c0-1.078-.469-1.615-1.448-1.615a1.539,1.539,0,0,0-1.6,1.7V16.95H84.669Z" transform="translate(-11.656 -7.62)" fill="#fff"/>
    <path id="Path_3503" data-name="Path 3503" d="M94.3,9.074v1.7h1.454V11.89H94.3v3.45c0,.7.29,1.011.949,1.011a4.42,4.42,0,0,0,.5-.031v1.1a4.344,4.344,0,0,1-.72.068c-1.473,0-2.059-.518-2.059-1.812V11.89H91.911V10.775h1.065v-1.7Z" transform="translate(-8.107 -8.125)" fill="#fff"/>
    <path id="Path_3504" data-name="Path 3504" d="M95.7,8.437h1.313v3.7h.1a2.065,2.065,0,0,1,2.046-1.2,2.21,2.21,0,0,1,2.311,2.5v4.332h-1.326V13.761c0-1.072-.5-1.615-1.435-1.615a1.568,1.568,0,0,0-1.689,1.7v3.919H95.7Z" transform="translate(-6.247 -8.437)" fill="#fff"/>
    <path id="Path_3505" data-name="Path 3505" d="M106.746,15.136a2.724,2.724,0,0,1-2.907,1.941,3.048,3.048,0,0,1-3.1-3.463,3.095,3.095,0,0,1,3.094-3.506c1.867,0,2.993,1.276,2.993,3.383v.462h-4.738v.074a1.773,1.773,0,0,0,1.787,1.922,1.608,1.608,0,0,0,1.6-.813Zm-4.658-2.162h3.389a1.619,1.619,0,0,0-1.652-1.738,1.716,1.716,0,0,0-1.737,1.738Z" transform="translate(-3.794 -7.618)" fill="#fff"/>
  </g>
  <g id="apple" transform="translate(13.558 11.69)">
    <path id="_Path_" data-name="&lt;Path&gt;" d="M32.021,23.4a7.374,7.374,0,0,1,3.512-6.187A7.548,7.548,0,0,0,29.586,14c-2.5-.263-4.928,1.5-6.2,1.5-1.3,0-3.263-1.471-5.377-1.428a7.92,7.92,0,0,0-6.665,4.065c-2.882,4.99-.732,12.322,2.028,16.356,1.381,1.975,3,4.181,5.108,4.1,2.067-.086,2.839-1.318,5.334-1.318,2.472,0,3.2,1.318,5.351,1.268,2.218-.036,3.615-1.984,4.948-3.977a16.335,16.335,0,0,0,2.263-4.608A7.126,7.126,0,0,1,32.021,23.4Z" transform="translate(-9.972 -6.146)" fill="#fff"/>
    <path id="_Path_2" data-name="&lt;Path&gt;" d="M23.628,13.922a7.261,7.261,0,0,0,1.661-5.2,7.387,7.387,0,0,0-4.78,2.473,6.909,6.909,0,0,0-1.7,5.009A6.108,6.108,0,0,0,23.628,13.922Z" transform="translate(-5.649 -8.72)" fill="#fff"/>
  </g>
</svg>
