<svg id="play_store_button" data-name="play store button" xmlns="http://www.w3.org/2000/svg" xmlns:xlink="http://www.w3.org/1999/xlink" width="192" height="57" viewBox="0 0 192 57">
  <defs>
    <linearGradient id="linear-gradient" x1="-11.1" y1="11.011" x2="-11.169" y2="10.993" gradientUnits="objectBoundingBox">
      <stop offset="0" stop-color="#00a0ff"/>
      <stop offset="0.01" stop-color="#00a1ff"/>
      <stop offset="0.26" stop-color="#00beff"/>
      <stop offset="0.51" stop-color="#00d2ff"/>
      <stop offset="0.76" stop-color="#00dfff"/>
      <stop offset="1" stop-color="#00e3ff"/>
    </linearGradient>
    <linearGradient id="linear-gradient-2" x1="-15.191" y1="29.696" x2="-15.352" y2="29.696" gradientUnits="objectBoundingBox">
      <stop offset="0" stop-color="#ffe000"/>
      <stop offset="0.41" stop-color="#ffbd00"/>
      <stop offset="0.78" stop-color="orange"/>
      <stop offset="1" stop-color="#ff9c00"/>
    </linearGradient>
    <linearGradient id="linear-gradient-3" x1="-8.728" y1="19.963" x2="-8.784" y2="19.869" gradientUnits="objectBoundingBox">
      <stop offset="0" stop-color="#ff3a44"/>
      <stop offset="1" stop-color="#c31162"/>
    </linearGradient>
    <linearGradient id="linear-gradient-4" x1="-8.77" y1="21.002" x2="-8.745" y2="20.96" gradientUnits="objectBoundingBox">
      <stop offset="0" stop-color="#32a071"/>
      <stop offset="0.07" stop-color="#2da771"/>
      <stop offset="0.48" stop-color="#15cf74"/>
      <stop offset="0.8" stop-color="#06e775"/>
      <stop offset="1" stop-color="#00f076"/>
    </linearGradient>
  </defs>
  <rect id="Rectangle_888" data-name="Rectangle 888" width="192" height="57" rx="8"/>
  <g id="Group_1305" data-name="Group 1305" transform="translate(12 10.735)">
    <g id="Group_1301" data-name="Group 1301" transform="translate(0 0.411)">
      <path id="Path_3467" data-name="Path 3467" d="M12.685,11a2.935,2.935,0,0,0-.67,2.05v32.39a2.932,2.932,0,0,0,.67,2.05l.1.1L30.838,29.469v-.425L12.787,10.9Z" transform="translate(-12 -10.411)" fill="url(#linear-gradient)"/>
      <path id="Path_3468" data-name="Path 3468" d="M36.811,35.517l-5.973-6.048v-.425l5.973-6.062.131.074L44.1,27.141c2.04,1.157,2.04,3.06,0,4.232l-7.124,4.07Z" transform="translate(-12 -10.411)" fill="url(#linear-gradient-2)"/>
      <path id="Path_3469" data-name="Path 3469" d="M36.986,35.429l-6.148-6.18L12.685,47.494a2.365,2.365,0,0,0,3.03.088L37,35.429" transform="translate(-12 -10.411)" fill="url(#linear-gradient-3)"/>
      <path id="Path_3470" data-name="Path 3470" d="M36.986,23.07,15.7,10.917A2.367,2.367,0,0,0,12.67,11L30.838,29.249Z" transform="translate(-12 -10.411)" fill="url(#linear-gradient-4)"/>
      <path id="Path_3471" data-name="Path 3471" d="M36.811,35.3,15.7,47.377a2.424,2.424,0,0,1-2.914,0h0l-.1.1h0l.1.1h0a2.409,2.409,0,0,0,2.914,0L36.986,35.429Z" transform="translate(-12 -10.411)" opacity="0.2" style="isolation: isolate"/>
      <path id="Path_3472" data-name="Path 3472" d="M12.685,47.289a2.932,2.932,0,0,1-.67-2.05v.22a2.935,2.935,0,0,0,.67,2.05l.1-.1Z" transform="translate(-12 -10.411)" opacity="0.12" style="isolation: isolate"/>
      <path id="Path_3473" data-name="Path 3473" d="M44.1,31.153,36.811,35.3l.131.132L44.1,31.358a2.56,2.56,0,0,0,1.457-2.109h0A2.719,2.719,0,0,1,44.1,31.153Z" transform="translate(-12 -10.411)" opacity="0.12" style="isolation: isolate"/>
      <path id="Path_3474" data-name="Path 3474" d="M15.7,11.122,44.1,27.346a2.719,2.719,0,0,1,1.457,1.9h0A2.56,2.56,0,0,0,44.1,27.141L15.7,10.917c-2.04-1.157-3.7-.191-3.7,2.152v.22C12.044,10.931,13.675,9.965,15.7,11.122Z" transform="translate(-12 -10.411)" fill="#fff" opacity="0.25" style="isolation: isolate"/>
    </g>
    <g id="Group_1304" data-name="Group 1304" transform="translate(45.022)">
      <g id="Group_1302" data-name="Group 1302" transform="translate(0.687)">
        <path id="Path_3475" data-name="Path 3475" d="M66.561,14.958a3.981,3.981,0,0,1-1.093,2.929,4.229,4.229,0,0,1-3.205,1.3,4.616,4.616,0,0,1-3.22-7.863,4.361,4.361,0,0,1,3.22-1.318,4.489,4.489,0,0,1,1.792.366,3.6,3.6,0,0,1,1.369.981l-.772.776a2.906,2.906,0,0,0-2.389-1.04,3.375,3.375,0,0,0-2.442,1.031,3.412,3.412,0,0,0-.953,2.484A3.437,3.437,0,0,0,64.7,17.14a2.774,2.774,0,0,0,.728-1.787H62.263V14.3H66.5a3.738,3.738,0,0,1,.059.659Z" transform="translate(-57.71 -10)" fill="#fff" stroke="#fff" stroke-width="0.5"/>
        <path id="Path_3476" data-name="Path 3476" d="M73.233,11.3H69.3v2.782h3.584v1.054H69.3v2.782h3.934V19h-5.1V10.214h5.1Z" transform="translate(-57.71 -10)" fill="#fff" stroke="#fff" stroke-width="0.5"/>
        <path id="Path_3477" data-name="Path 3477" d="M78.012,19H76.89V11.3H74.443V10.214h6.075V11.3H78.012Z" transform="translate(-57.71 -10)" fill="#fff" stroke="#fff" stroke-width="0.5"/>
        <path id="Path_3478" data-name="Path 3478" d="M84.8,19V10.214h1.122V19Z" transform="translate(-57.71 -10)" fill="#fff" stroke="#fff" stroke-width="0.5"/>
        <path id="Path_3479" data-name="Path 3479" d="M90.906,19H89.784V11.3H87.336V10.214h6V11.3H90.906Z" transform="translate(-57.71 -10)" fill="#fff" stroke="#fff" stroke-width="0.5"/>
        <path id="Path_3480" data-name="Path 3480" d="M104.717,17.857a4.529,4.529,0,0,1-6.41,0,4.761,4.761,0,0,1,0-6.516,4.5,4.5,0,0,1,6.41,0,4.747,4.747,0,0,1,0,6.516Zm-5.58-.732a3.353,3.353,0,0,0,4.749,0,3.762,3.762,0,0,0,0-5.037,3.353,3.353,0,0,0-4.749,0,3.762,3.762,0,0,0,0,5.037Z" transform="translate(-57.71 -10)" fill="#fff" stroke="#fff" stroke-width="0.5"/>
        <path id="Path_3481" data-name="Path 3481" d="M107.587,19V10.214h1.369l4.254,6.838h0V10.214h1.122V19h-1.166l-4.444-7.16h0V19Z" transform="translate(-57.71 -10)" fill="#fff" stroke="#fff" stroke-width="0.5"/>
      </g>
      <g id="Group_1303" data-name="Group 1303" transform="translate(0 14.85)">
        <path id="Path_3482" data-name="Path 3482" d="M96.748,31.812a6.121,6.121,0,1,0,4.423,1.786,6.085,6.085,0,0,0-4.423-1.786Zm0,10a3.755,3.755,0,0,1-3.654-2.14,3.794,3.794,0,0,1,.639-4.2,3.756,3.756,0,0,1,6.511,2.564,3.594,3.594,0,0,1-3.5,3.778Zm-13.564-10A6.119,6.119,0,1,0,87.593,33.6a6.085,6.085,0,0,0-4.424-1.786Zm0,10a3.782,3.782,0,1,1,3.482-3.778,3.611,3.611,0,0,1-.956,2.63,3.574,3.574,0,0,1-2.541,1.148ZM67.027,33.73v2.636h6.294a5.535,5.535,0,0,1-1.457,3.324,6.428,6.428,0,0,1-4.852,1.933,7.029,7.029,0,0,1,0-14.057,6.679,6.679,0,0,1,4.764,1.888l1.851-1.859a9.139,9.139,0,0,0-6.6-2.738,9.617,9.617,0,0,0-8.651,4.723,9.719,9.719,0,0,0,0,9.9A9.618,9.618,0,0,0,67.027,44.2a8.719,8.719,0,0,0,6.716-2.709,8.807,8.807,0,0,0,2.273-6.179,8.582,8.582,0,0,0-.146-1.655Zm66.012,2.05a5.724,5.724,0,0,0-11.131,2.255,6.107,6.107,0,0,0,1.759,4.425,6.043,6.043,0,0,0,4.389,1.8,6.155,6.155,0,0,0,5.158-2.752L131.1,40.041a3.536,3.536,0,0,1-3.045,1.728,3.146,3.146,0,0,1-3-1.889l8.29-3.441Zm-8.45,2.079a3.422,3.422,0,0,1,.858-2.5,3.387,3.387,0,0,1,2.376-1.133,2.4,2.4,0,0,1,2.3,1.318Zm-6.731,6.033h2.725v-18.3h-2.725ZM113.4,33.2h-.1a4.36,4.36,0,0,0-3.263-1.464,6.239,6.239,0,0,0,0,12.461,4.217,4.217,0,0,0,3.263-1.464h.087v.893c0,2.387-1.267,3.66-3.307,3.66a3.422,3.422,0,0,1-3.117-2.211l-2.375,1a5.9,5.9,0,0,0,5.492,3.675c3.191,0,5.828-1.888,5.828-6.486V32.178H113.4Zm-3.118,8.61a3.794,3.794,0,0,1,0-7.556,3.487,3.487,0,0,1,2.446,1.189,3.523,3.523,0,0,1,.861,2.589,3.478,3.478,0,0,1-3.321,3.778ZM145.8,25.589h-6.512v18.3h2.724v-6.94h3.8a5.694,5.694,0,1,0,0-11.363Zm0,8.785H142V28.137h3.861a3.141,3.141,0,0,1,0,6.281Zm16.8-2.635a5.094,5.094,0,0,0-4.851,2.8l2.418,1.01a2.576,2.576,0,0,1,2.477-1.347,2.611,2.611,0,0,1,1.949.565,2.64,2.64,0,0,1,.965,1.792v.191a5.992,5.992,0,0,0-2.841-.7c-2.608,0-5.245,1.464-5.245,4.114a4.217,4.217,0,0,0,4.517,4.027,3.825,3.825,0,0,0,3.5-1.757h.087v1.464h2.623V36.849c0-3.207-2.419-5.066-5.522-5.066Zm-.335,10.03c-.888,0-2.127-.454-2.127-1.552,0-1.464,1.545-1.948,2.914-1.948a4.825,4.825,0,0,1,2.477.615,3.3,3.3,0,0,1-3.191,2.929Zm15.487-9.591-3.118,7.936h-.087l-3.234-7.936H168.4l4.851,11.1-2.768,6.165h2.841l7.459-17.264Zm-24.49,11.714h2.724v-18.3h-2.724Z" transform="translate(-57.022 -24.85)" fill="#fff"/>
      </g>
    </g>
  </g>
</svg>
